<svg width="50" height="46" viewBox="0 0 50 46" fill="none" xmlns="http://www.w3.org/2000/svg">
<path d="M46.718 16.5179C48.0785 16.5179 49.1767 17.4801 49.1767 18.6722C49.1767 19.8642 48.0785 20.8264 46.718 20.8264H31.9658V17.236H45.8984L46.718 16.5179Z" fill="white"/>
<path d="M22.9511 2.16289V2.87382H19.6729V2.16289C19.6729 1.37297 20.3932 0.733842 21.3038 0.719482H21.3275C22.2373 0.733842 22.9511 1.37297 22.9511 2.16289Z" fill="white"/>
<path d="M31.9667 17.236V20.8265H22.9515H19.6732H0.823242C0.823242 16.8554 4.48752 13.6455 9.01888 13.6455H19.6732H22.9515H31.9667V17.236Z" fill="white"/>
<path d="M19.6729 2.87396H22.9511V13.6456H19.6729V2.87396Z" fill="white"/>
<path d="M16.3945 31.6053H26.2293C24.877 31.6053 23.7706 32.5676 23.7706 33.7596V43.0878V43.095C23.7624 44.287 22.6723 45.2421 21.3119 45.2421C19.9596 45.2421 18.8614 44.287 18.8532 43.095V43.0878V33.7596C18.8532 32.5676 17.755 31.6053 16.3945 31.6053Z" fill="white"/>
<path d="M19.6729 26.5714H22.9511V29.4509H19.6729V26.5714Z" fill="white"/>
<path d="M26.6386 29.451C27.3188 29.451 27.8679 29.9321 27.8679 30.5281C27.8679 31.1242 27.3188 31.6053 26.6386 31.6053H26.2288H16.3941H15.9842C15.3122 31.6053 14.7549 31.1242 14.7549 30.5281C14.7549 29.9321 15.3122 29.451 15.9842 29.451H19.6723H22.9505H26.6386Z" fill="white"/>
<path d="M19.6729 20.8264H22.9511V26.5712H19.6729V20.8264Z" fill="white"/>
<path d="M46.7219 21.546C46.2687 21.546 45.9023 21.225 45.9023 20.8279C45.9023 20.4308 46.2687 20.1098 46.7219 20.1098C47.6259 20.1098 48.3611 19.4656 48.3611 18.6736C48.3611 17.8815 47.6259 17.2374 46.7219 17.2374C46.2687 17.2374 45.9023 16.9163 45.9023 16.5192C45.9023 16.1221 46.2687 15.8011 46.7219 15.8011C48.5299 15.8011 50.0002 17.0894 50.0002 18.6736C50.0002 20.2577 48.5299 21.546 46.7219 21.546Z" fill="white"/>
<path d="M46.7168 21.546H0.819564C0.366342 21.546 0 21.225 0 20.8279C0 20.4308 0.366342 20.1099 0.819564 20.1099H46.7168C47.17 20.1099 47.5364 20.4308 47.5364 20.8279C47.5364 21.225 47.17 21.546 46.7168 21.546Z" fill="white"/>
<path d="M45.9018 17.9556C45.692 17.9556 45.4822 17.8853 45.3223 17.7452C45.0019 17.4645 45.0019 17.0106 45.3223 16.7298L46.1419 16.0117C46.4624 15.7309 46.9804 15.7309 47.3008 16.0117C47.6213 16.2925 47.6213 16.7463 47.3008 17.0271L46.4813 17.7452C46.3214 17.8853 46.1116 17.9556 45.9018 17.9556Z" fill="white"/>
<path d="M45.9023 17.9555H31.9631C31.5099 17.9555 31.1436 17.6345 31.1436 17.2374C31.1436 16.8403 31.5099 16.5193 31.9631 16.5193H45.9023C46.3555 16.5193 46.7218 16.8403 46.7218 17.2374C46.7218 17.6345 46.3555 17.9555 45.9023 17.9555Z" fill="white"/>
<path d="M31.9631 21.546C31.5099 21.546 31.1436 21.225 31.1436 20.8279V13.6482C31.1436 13.2511 31.5099 12.9301 31.9631 12.9301C32.4163 12.9301 32.7826 13.2511 32.7826 13.6482V20.8279C32.7826 21.225 32.4163 21.546 31.9631 21.546Z" fill="white"/>
<path d="M31.9626 14.3663H9.01978C8.56657 14.3663 8.2002 14.0453 8.2002 13.6482C8.2002 13.2511 8.56657 12.9301 9.01978 12.9301H31.9626C32.4158 12.9301 32.7822 13.2511 32.7822 13.6482C32.7822 14.0453 32.4158 14.3663 31.9626 14.3663Z" fill="white"/>
<path d="M0.824445 21.5461C0.371224 21.5461 0.00488281 21.225 0.00488281 20.8279C0.00488281 16.4733 4.04942 12.9302 9.02005 12.9302C9.47326 12.9302 9.83964 13.2512 9.83964 13.6483C9.83964 14.0454 9.47326 14.3664 9.02005 14.3664C4.95256 14.3664 1.64401 17.2647 1.64401 20.8279C1.64401 21.225 1.27766 21.5461 0.824445 21.5461Z" fill="white"/>
<path d="M36.0971 19.7451C35.6439 19.7451 35.2734 19.4242 35.2734 19.027C35.2734 18.6299 35.6357 18.3089 36.0881 18.3089H36.0971C36.5495 18.3089 36.9167 18.6299 36.9167 19.027C36.9167 19.4242 36.5495 19.7451 36.0971 19.7451Z" fill="white"/>
<path d="M40.1948 19.7451C39.7415 19.7451 39.3711 19.4242 39.3711 19.027C39.3711 18.6299 39.7333 18.3089 40.1858 18.3089H40.1948C40.6472 18.3089 41.0143 18.6299 41.0143 19.027C41.0143 19.4242 40.6472 19.7451 40.1948 19.7451Z" fill="white"/>
<path d="M44.2904 19.7451C43.8372 19.7451 43.4668 19.4242 43.4668 19.027C43.4668 18.6299 43.829 18.3089 44.2814 18.3089H44.2904C44.7428 18.3089 45.11 18.6299 45.11 19.027C45.11 19.4242 44.7428 19.7451 44.2904 19.7451Z" fill="white"/>
<path d="M26.6429 30.1718H15.9885C15.5353 30.1718 15.1689 29.8509 15.1689 29.4538C15.1689 29.0567 15.5353 28.7357 15.9885 28.7357H26.6429C27.0961 28.7357 27.4624 29.0567 27.4624 29.4538C27.4624 29.8509 27.0961 30.1718 26.6429 30.1718Z" fill="white"/>
<path d="M26.6429 32.3263H15.9885C15.5353 32.3263 15.1689 32.0053 15.1689 31.6082C15.1689 31.2111 15.5353 30.8901 15.9885 30.8901H26.6429C27.0961 30.8901 27.4624 31.2111 27.4624 31.6082C27.4624 32.0053 27.0961 32.3263 26.6429 32.3263Z" fill="white"/>
<path d="M15.9884 32.3262C14.8582 32.3262 13.9395 31.5212 13.9395 30.5309C13.9395 29.5407 14.8582 28.7357 15.9884 28.7357C16.4416 28.7357 16.8079 29.0567 16.8079 29.4538C16.8079 29.8509 16.4416 30.1719 15.9884 30.1719C15.763 30.1719 15.5786 30.3334 15.5786 30.5309C15.5786 30.7284 15.763 30.89 15.9884 30.89C16.4416 30.89 16.8079 31.211 16.8079 31.6081C16.8079 32.0052 16.4416 32.3262 15.9884 32.3262Z" fill="white"/>
<path d="M26.6428 32.3262C26.1896 32.3262 25.8232 32.0052 25.8232 31.6081C25.8232 31.211 26.1896 30.89 26.6428 30.89C26.8682 30.89 27.0526 30.7284 27.0526 30.5309C27.0526 30.3334 26.8682 30.1719 26.6428 30.1719C26.1896 30.1719 25.8232 29.8509 25.8232 29.4538C25.8232 29.0567 26.1896 28.7357 26.6428 28.7357C27.773 28.7357 28.6917 29.5407 28.6917 30.5309C28.6917 31.5212 27.773 32.3262 26.6428 32.3262Z" fill="white"/>
<path d="M23.7736 34.4807C23.3204 34.4807 22.9541 34.1597 22.9541 33.7626C22.9541 32.1784 24.4244 30.8901 26.2323 30.8901C26.6855 30.8901 27.0519 31.2111 27.0519 31.6082C27.0519 32.0054 26.6855 32.3264 26.2323 32.3264C25.3283 32.3264 24.5932 32.9705 24.5932 33.7626C24.5932 34.1589 24.2268 34.4807 23.7736 34.4807Z" fill="white"/>
<path d="M18.8564 34.4807C18.4032 34.4807 18.0368 34.1597 18.0368 33.7626C18.0368 32.9705 17.3017 32.3264 16.3977 32.3264C15.9445 32.3264 15.5781 32.0054 15.5781 31.6082C15.5781 31.2111 15.9445 30.8901 16.3977 30.8901C18.2056 30.8901 19.6759 32.1784 19.6759 33.7626C19.6759 34.1589 19.3096 34.4807 18.8564 34.4807Z" fill="white"/>
<path d="M21.3154 45.9616C19.5074 45.9616 18.0371 44.6733 18.0371 43.0906C18.0371 42.6935 18.4035 42.3725 18.8567 42.3725C19.3099 42.3725 19.6762 42.6935 19.6762 43.0906C19.6762 43.882 20.4114 44.5254 21.3154 44.5254C22.2185 44.5254 22.9529 43.882 22.9529 43.0906C22.9529 42.6935 23.3192 42.3725 23.7724 42.3725C24.2256 42.3725 24.592 42.6935 24.592 43.0906C24.592 44.6733 23.1217 45.9616 21.3154 45.9616Z" fill="white"/>
<path d="M18.8567 43.8159C18.4035 43.8159 18.0371 43.4949 18.0371 43.0978V33.7624C18.0371 33.3653 18.4035 33.0443 18.8567 33.0443C19.3099 33.0443 19.6762 33.3653 19.6762 33.7624V43.0978C19.6762 43.4942 19.3099 43.8159 18.8567 43.8159Z" fill="white"/>
<path d="M23.7736 43.8159C23.3204 43.8159 22.9541 43.4949 22.9541 43.0978V33.7624C22.9541 33.3653 23.3204 33.0443 23.7736 33.0443C24.2269 33.0443 24.5932 33.3653 24.5932 33.7624V43.0978C24.5932 43.4942 24.2269 43.8159 23.7736 43.8159Z" fill="white"/>
<path d="M19.676 30.1719C19.2228 30.1719 18.8564 29.8509 18.8564 29.4538V20.8279C18.8564 20.4308 19.2228 20.1098 19.676 20.1098C20.1292 20.1098 20.4956 20.4308 20.4956 20.8279V29.4538C20.4956 29.8502 20.1292 30.1719 19.676 30.1719Z" fill="white"/>
<path d="M22.9544 30.1719C22.5011 30.1719 22.1348 29.8509 22.1348 29.4538V20.8279C22.1348 20.4308 22.5011 20.1098 22.9544 20.1098C23.4076 20.1098 23.7739 20.4308 23.7739 20.8279V29.4538C23.7739 29.8502 23.4076 30.1719 22.9544 30.1719Z" fill="white"/>
<path d="M19.676 2.87958C19.2228 2.87958 18.8564 2.55859 18.8564 2.16148C18.8564 0.970151 19.9636 0 21.325 0C21.7782 0 22.1445 0.320991 22.1445 0.718103C22.1445 1.11521 21.7782 1.4362 21.325 1.4362C20.8676 1.4362 20.4956 1.7615 20.4956 2.16148C20.4956 2.55859 20.1292 2.87958 19.676 2.87958Z" fill="white"/>
<path d="M22.9542 2.87958C22.501 2.87958 22.1346 2.55859 22.1346 2.16148C22.1346 1.7615 21.7634 1.4362 21.3068 1.4362C20.8536 1.4362 20.4873 1.11521 20.4873 0.718103C20.4873 0.320991 20.8536 0 21.3068 0C22.6665 0 23.7737 0.970151 23.7737 2.16148C23.7737 2.55859 23.4074 2.87958 22.9542 2.87958Z" fill="white"/>
<path d="M22.9543 3.59475H19.676C19.2228 3.59475 18.8564 3.27377 18.8564 2.87666C18.8564 2.47956 19.2228 2.15857 19.676 2.15857H22.9543C23.4075 2.15857 23.7738 2.47956 23.7738 2.87666C23.7738 3.27377 23.4075 3.59475 22.9543 3.59475Z" fill="white"/>
<path d="M22.9543 27.2937H19.676C19.2228 27.2937 18.8564 26.9727 18.8564 26.5756C18.8564 26.1785 19.2228 25.8575 19.676 25.8575H22.9543C23.4075 25.8575 23.7738 26.1785 23.7738 26.5756C23.7738 26.9727 23.4075 27.2937 22.9543 27.2937Z" fill="white"/>
<path d="M22.9544 14.3664C22.5011 14.3664 22.1348 14.0454 22.1348 13.6483V2.16147C22.1348 1.76435 22.5011 1.44336 22.9544 1.44336C23.4076 1.44336 23.7739 1.76435 23.7739 2.16147V13.6483C23.7739 14.0454 23.4076 14.3664 22.9544 14.3664Z" fill="white"/>
<path d="M19.676 14.3664C19.2228 14.3664 18.8564 14.0454 18.8564 13.6483V2.16147C18.8564 1.76435 19.2228 1.44336 19.676 1.44336C20.1292 1.44336 20.4956 1.76435 20.4956 2.16147V13.6483C20.4956 14.0454 20.1292 14.3664 19.676 14.3664Z" fill="white"/>
<path d="M25.4125 12.2122C25.2027 12.2122 24.9929 12.1418 24.8331 12.0018C24.5127 11.721 24.5127 11.2672 24.8331 10.9864L26.4722 9.55019C26.7927 9.2694 27.3107 9.2694 27.6311 9.55019C27.9515 9.83098 27.9515 10.2848 27.6311 10.5656L25.992 12.0018C25.8322 12.1418 25.6224 12.2122 25.4125 12.2122Z" fill="white"/>
<path d="M17.2167 12.2122C17.0069 12.2122 16.7971 12.1418 16.6373 12.0018L14.9982 10.5656C14.6777 10.2848 14.6777 9.83098 14.9982 9.55019C15.3186 9.2694 15.8366 9.2694 16.1571 9.55019L17.7962 10.9864C18.1166 11.2672 18.1166 11.721 17.7962 12.0018C17.6364 12.1418 17.4266 12.2122 17.2167 12.2122Z" fill="white"/>
<path d="M27.0517 25.1381C26.8418 25.1381 26.6321 25.0677 26.4722 24.9276L24.8331 23.4914C24.5127 23.2106 24.5127 22.7568 24.8331 22.476C25.1536 22.1952 25.6715 22.1952 25.992 22.476L27.6311 23.9122C27.9515 24.193 27.9515 24.6468 27.6311 24.9276C27.4713 25.0677 27.2615 25.1381 27.0517 25.1381Z" fill="white"/>
<path d="M15.5776 25.1381C15.3678 25.1381 15.158 25.0677 14.9982 24.9276C14.6777 24.6468 14.6777 24.193 14.9982 23.9122L16.6373 22.476C16.9578 22.1952 17.4757 22.1952 17.7962 22.476C18.1166 22.7568 18.1166 23.2106 17.7962 23.4914L16.1571 24.9276C15.9972 25.0677 15.7874 25.1381 15.5776 25.1381Z" fill="white"/>
</svg>
