<svg width="50" height="47" viewBox="0 0 50 47" fill="none" xmlns="http://www.w3.org/2000/svg">
<path d="M49.7855 0.50301C48.9824 -0.332444 46.538 0.0908693 45.8079 0.240676C44.2546 0.559076 41.8269 1.31826 39.0823 3.12648C38.7407 3.35164 38.6391 3.82225 38.8556 4.17765C39.072 4.53298 39.5244 4.63832 39.8663 4.41345C43.1057 2.27914 46.1161 1.59928 47.7071 1.5226C44.4463 4.71592 34.5653 14.411 30.9722 18.1492C28.0001 21.2414 26.0901 23.1102 24.5555 24.6121C23.2649 25.8749 22.2124 26.9047 21.0063 28.1958C20.7202 27.9831 20.3202 28.0104 20.0631 28.2774C19.8025 28.5482 19.7793 28.9723 19.9931 29.2707L18.9518 30.3542L16.4263 27.7269L17.4553 26.6428C17.551 26.7422 17.8244 27.026 17.8383 27.0404C17.9813 27.1892 18.1688 27.2635 18.3562 27.2635C18.5436 27.2635 18.7312 27.1892 18.8741 27.0404C19.1602 26.7431 19.1602 26.2608 18.8743 25.9632L18.4818 25.5549C21.0602 22.8095 32.8081 10.3492 37.4331 6.27572C37.7418 6.00385 37.7801 5.52305 37.5187 5.20212C37.2572 4.88098 36.795 4.84118 36.4863 5.11305C32.1855 8.90112 5.86028 36.5708 5.85021 36.5814C5.09357 37.3688 4.3505 37.6297 3.33938 37.8588C2.27932 38.0984 1.31233 38.6481 0.54309 39.4483C-0.113554 40.1312 -0.231424 41.2203 0.504902 41.9863L3.97258 45.5941C4.63664 46.2847 5.71506 46.2801 6.38218 45.5862L7.6831 44.2327C7.96916 43.9351 7.96903 43.4528 7.6829 43.1553C7.39691 42.8579 6.93312 42.8579 6.64706 43.1555L5.34611 44.5091C5.25187 44.6073 5.10051 44.6125 5.00862 44.5169L1.54094 40.9091C1.47385 40.8394 1.39055 40.7527 1.5967 40.5074C2.75324 39.3181 3.8302 39.3952 4.70891 39.0693C5.54387 38.7599 6.29681 38.2721 6.88633 37.6587L15.3941 28.8077L16.1208 29.5638L13.0807 32.7266C12.7947 33.0242 12.7947 33.5066 13.0809 33.8039C13.3667 34.1013 13.8307 34.1014 14.1167 33.8038L17.1565 30.6413L17.9162 31.4316L8.85616 40.8575C8.57023 41.1551 8.57023 41.6373 8.85636 41.9347C9.14248 42.2323 9.60627 42.2322 9.8922 41.9347C13.4737 38.2086 23.1194 28.1093 25.5595 25.7218C27.1014 24.2129 29.0204 22.3351 32.0084 19.2265C36.3009 14.7607 49.635 1.72796 49.7691 1.59684C49.9136 1.45567 49.9969 1.25966 49.9999 1.05358C50.0029 0.84751 49.9256 0.648756 49.7855 0.50301Z" fill="white"/>
</svg>
