<svg width="50" height="48" viewBox="0 0 50 48" fill="none" xmlns="http://www.w3.org/2000/svg">
<path d="M49.0234 45.5065H14.5697C13.2862 45.5065 12.0797 45.0331 11.1722 44.1736L2.4294 35.893C2.12129 35.6012 1.95206 35.2132 1.95313 34.8006C1.95411 34.3878 2.12521 34.0006 2.43477 33.7101C3.06876 33.1152 4.09786 33.1174 4.72892 33.7153L13.2219 41.7613C13.4051 41.9347 13.6535 42.0323 13.9125 42.0323H26.4312C26.9705 42.0323 27.4078 41.6181 27.4078 41.1074C27.4078 40.5965 26.9706 40.1824 26.4312 40.1824L15.0141 40.1822C14.1215 40.1822 13.3954 39.4945 13.3954 38.6491C13.3954 37.8037 14.1214 37.1159 15.0137 37.1158H22.2632C22.5254 37.1158 22.7765 37.016 22.9601 36.8389L24.5151 35.3387C25.9225 33.981 27.8818 33.2024 29.8904 33.2024C31.5357 33.2024 33.1614 33.724 34.4682 34.6711L37.5789 36.9255C37.7493 37.049 37.9578 37.1159 38.1724 37.1159H49.0234C49.5628 37.1159 50 36.7019 50 36.191C50 35.6802 49.5627 35.2661 49.0234 35.2661H38.5031L35.6552 33.202C34.0096 32.0094 31.9624 31.3527 29.8906 31.3527C27.3611 31.3527 24.8938 32.3332 23.1216 34.0429L21.8536 35.2661H19.1438L14.1797 27.12C13.1975 25.5084 11.0106 24.9484 9.30471 25.871C8.47192 26.3216 7.87529 27.0526 7.62491 27.9295C7.56984 28.1224 7.53399 28.3173 7.51511 28.5122C6.11796 27.3206 3.95284 27.3565 2.60216 28.6238C1.66212 29.5058 1.33448 30.7814 1.67159 31.9367C1.45479 32.0659 1.24923 32.2184 1.06006 32.3958C0.37872 33.0353 0.0022553 33.8878 9.25173e-06 34.7962C-0.00213938 35.7047 0.370027 36.5588 1.04825 37.2011L9.791 45.4817C11.0676 46.6906 12.7646 47.3564 14.5697 47.3564H49.0234C49.5628 47.3564 50 46.9423 50 46.4314C50 45.9206 49.5628 45.5065 49.0234 45.5065ZM9.51038 28.4125C9.6241 28.0141 9.89511 27.682 10.2734 27.4773C11.0484 27.0579 12.0419 27.3125 12.4882 28.0447L16.8886 35.2659H14.6512L11.0628 31.8664L9.67179 29.5845C9.45389 29.2272 9.39658 28.811 9.51038 28.4125ZM3.97686 29.938C4.61075 29.3431 5.63995 29.3454 6.27099 29.9433L12.7232 36.0561C12.2108 36.4628 11.8203 37.003 11.6119 37.6196L6.11026 32.4074C5.40548 31.7396 4.47491 31.4102 3.54679 31.4181C3.40558 30.9001 3.55626 30.3327 3.97686 29.938Z" fill="white"/>
<path d="M22.8515 19.6547H27.1484C27.6878 19.6547 28.125 19.2406 28.125 18.7298V16.51H30.4687C31.0081 16.51 31.4452 16.0959 31.4452 15.585V11.5154C31.4452 11.0045 31.0081 10.5904 30.4687 10.5904H28.125V8.37055C28.125 7.85971 27.6878 7.44568 27.1484 7.44568H22.8515C22.3123 7.44568 21.875 7.85971 21.875 8.37055V10.5904H19.5312C18.992 10.5904 18.5547 11.0045 18.5547 11.5154V15.585C18.5547 16.0959 18.992 16.51 19.5312 16.51H21.875V18.7298C21.875 19.2406 22.3123 19.6547 22.8515 19.6547ZM20.5078 14.6601V12.4403H22.8515C23.3909 12.4403 23.8281 12.0262 23.8281 11.5154V9.29549H26.1718V11.5154C26.1718 12.0262 26.6091 12.4403 27.1484 12.4403H29.4921V14.6601H27.1484C26.6091 14.6601 26.1718 15.0742 26.1718 15.585V17.8049H23.8281V15.585C23.8281 15.0742 23.3909 14.6601 22.8515 14.6601H20.5078Z" fill="white"/>
<path d="M24.765 28.9149C24.8448 28.9343 24.9267 28.9439 25.0084 28.9439C25.0905 28.9439 25.1726 28.9341 25.2528 28.9146C31.116 27.4791 35.7878 23.1429 37.445 17.5982C37.5919 17.1067 37.2904 16.5955 36.7714 16.4563C36.252 16.3169 35.7127 16.6029 35.5657 17.0943C34.1199 21.9318 30.0872 25.731 25.0078 27.0617C18.4357 25.3503 13.8672 19.6927 13.8672 13.2201V5.29812L25 1.89678L36.1328 5.29812V9.06202C36.1328 9.57286 36.5701 9.98696 37.1094 9.98696C37.6487 9.98696 38.0859 9.57286 38.0859 9.06202V4.62459C38.0859 4.22317 37.8125 3.86753 37.4092 3.74432L25.2998 0.0446048C25.1049 -0.0148683 24.895 -0.0148683 24.7001 0.0446048L12.5907 3.74432C12.1875 3.86753 11.9141 4.22317 11.9141 4.62459V13.2201C11.9141 16.7863 13.198 20.3139 15.5292 23.1531C17.8531 25.9836 21.1331 28.0298 24.765 28.9149Z" fill="white"/>
<path d="M37.1094 12.2996C36.8525 12.2996 36.6006 12.3977 36.4189 12.5698C36.2373 12.7427 36.1328 12.9804 36.1328 13.2246C36.1328 13.4678 36.2372 13.7064 36.4189 13.8785C36.6006 14.0505 36.8525 14.1495 37.1094 14.1495C37.3662 14.1495 37.6182 14.0505 37.7997 13.8785C37.9813 13.7064 38.0859 13.4678 38.0859 13.2246C38.0859 12.9804 37.9814 12.7427 37.7997 12.5698C37.6182 12.3977 37.3662 12.2996 37.1094 12.2996Z" fill="white"/>
</svg>
