<svg width="50" height="51" viewBox="0 0 50 51" fill="none" xmlns="http://www.w3.org/2000/svg">
<path d="M49.695 21.1649L47.0013 18.4699C46.5946 18.0626 46.5946 17.4024 47.0013 16.995L48.222 15.7727C49.442 14.5508 49.442 12.5702 48.222 11.3484L38.6678 1.78212C37.4474 0.560667 35.4693 0.560667 34.249 1.78212L33.0282 3.00447C32.6155 3.39724 31.9678 3.39724 31.5552 3.00447L28.8615 0.305365C28.4548 -0.101788 27.7954 -0.101788 27.3885 0.305365L0.304984 27.4228C-0.101661 27.83 -0.101661 28.4902 0.304984 28.8976L2.99876 31.5947C3.40541 32.002 3.40541 32.6622 2.99876 33.0695L1.77795 34.2919C0.558012 35.5138 0.558012 37.4944 1.77795 38.7162L11.3322 48.2824C12.5525 49.5039 14.5307 49.5039 15.7511 48.2824L16.9718 47.0601C17.3845 46.6673 18.0322 46.6673 18.4448 47.0601L21.1386 49.7573C21.5453 50.1645 22.2047 50.1645 22.6115 49.7573L49.6951 22.6399C50.1016 22.2325 50.1016 21.5723 49.695 21.1649Z" fill="white"/>
<path d="M39.2787 12.8212L37.1954 10.7352C36.7816 10.335 36.1221 10.3466 35.7224 10.7609C35.3325 11.1651 35.3325 11.8058 35.7224 12.21L36.0266 12.5167L33.9433 14.6026H32.2912C31.7159 14.6026 31.2495 15.0696 31.2495 15.6456V17.2997L29.1661 19.3857L28.862 19.0811C28.4482 18.681 27.7887 18.6924 27.389 19.1067C26.9992 19.5109 26.9992 20.1516 27.389 20.5558L27.6932 20.8604L25.5077 23.0485C25.3435 22.9925 25.1726 22.9582 24.9994 22.9464C23.8488 22.9464 22.9161 23.8803 22.9161 25.0323C22.9279 25.2057 22.9623 25.3768 23.0182 25.5413L20.8327 27.7295L20.5285 27.4249C20.1147 27.0247 19.4552 27.0362 19.0555 27.4505C18.6657 27.8548 18.6657 28.4955 19.0555 28.8996L19.3597 29.2042L17.2764 31.2901H15.6244C15.0491 31.2901 14.5826 31.7571 14.5826 32.3331V33.9873L12.4993 36.0732L12.1951 35.7686C11.7813 35.3684 11.1219 35.3799 10.7221 35.7942C10.3322 36.1984 10.3322 36.8392 10.7221 37.2434L12.8055 39.3293C13.2052 39.7436 13.8646 39.755 14.2784 39.3549C14.6922 38.9547 14.7036 38.2945 14.304 37.8802C14.2956 37.8715 14.2871 37.8629 14.2784 37.8545L13.9722 37.5479L16.0555 35.4619H17.7076C18.2829 35.4619 18.7493 34.995 18.7493 34.4189V32.7648L20.8326 30.6789L21.1368 30.9835C21.5506 31.3836 22.2101 31.3722 22.6097 30.9579C22.9996 30.5536 22.9996 29.9129 22.6097 29.5087L22.3056 29.2042L24.4911 27.016C24.6553 27.072 24.8262 27.1063 24.9994 27.1182C26.1499 27.1182 27.0827 26.1842 27.0827 25.0322C27.0709 24.8589 27.0366 24.6877 26.9806 24.5233L29.1661 22.3351L29.4703 22.6397C29.884 23.0398 30.5435 23.0283 30.9432 22.614C31.3331 22.2098 31.3331 21.5691 30.9432 21.165L30.639 20.8604L32.7224 18.7744H34.3744C34.9497 18.7744 35.4161 18.3074 35.4161 17.7314V16.0773L37.4994 13.9913L37.8036 14.296C38.2034 14.7103 38.8628 14.7217 39.2767 14.3216C39.6904 13.9214 39.7018 13.2612 39.3022 12.8468C39.2938 12.8381 39.2853 12.8295 39.2767 12.8212H39.2787Z" fill="#CBCBCB"/>
</svg>
