<svg width="64" height="49" viewBox="0 0 64 49" fill="none" xmlns="http://www.w3.org/2000/svg">
<g clip-path="url(#clip0)">
<path d="M62.0773 34.7264C61.9735 33.7136 61.4888 32.7748 60.7176 32.0929C59.9465 31.4111 58.944 31.0347 57.9054 31.0373H34.5049C34.2276 31.0373 33.9617 31.1453 33.7656 31.3374C33.5695 31.5296 33.4593 31.7902 33.4593 32.0621C33.4593 32.3338 33.5695 32.5945 33.7656 32.7867C33.9617 32.9788 34.2276 33.0868 34.5049 33.0868H57.9054C58.4236 33.0854 58.9239 33.272 59.3101 33.6107C59.6962 33.9494 59.9408 34.4162 59.9966 34.9211L60.6448 42.3096L2.09144 42.2994L2.73971 34.9314C2.79309 34.4246 3.03658 33.9553 3.42296 33.6145C3.80933 33.2737 4.31109 33.0857 4.83091 33.0868H21.9578C22.2351 33.0868 22.501 32.9788 22.6971 32.7867C22.8932 32.5945 23.0034 32.3338 23.0034 32.0621C23.0034 31.7902 22.8932 31.5296 22.6971 31.3374C22.501 31.1453 22.2351 31.0373 21.9578 31.0373H4.83091C3.789 31.0353 2.78381 31.4144 2.01216 32.1005C1.24051 32.7867 0.757953 33.7304 0.658974 34.7469L0.0107037 42.1047C-0.0173706 42.3895 0.0154876 42.6768 0.107177 42.9485C0.198867 43.2201 0.347372 43.47 0.543199 43.6822C0.739027 43.8944 0.977866 44.0641 1.24446 44.1807C1.51105 44.2973 1.79952 44.3581 2.09144 44.3592H5.22823V47.4335C5.22823 47.7052 5.33839 47.9659 5.53448 48.1581C5.73056 48.3502 5.99651 48.4582 6.27383 48.4582H14.6386C14.9159 48.4582 15.1819 48.3502 15.378 48.1581C15.574 47.9659 15.6842 47.7052 15.6842 47.4335V44.3592H47.0521V47.4335C47.0521 47.7052 47.1623 47.9659 47.3583 48.1581C47.5544 48.3502 47.8203 48.4582 48.0977 48.4582H56.4624C56.7398 48.4582 57.0057 48.3502 57.2018 48.1581C57.3979 47.9659 57.5081 47.7052 57.5081 47.4335V44.3592H60.6448C60.9367 44.3585 61.2251 44.298 61.4916 44.1815C61.7581 44.065 61.9968 43.8951 62.1923 43.6828C62.3886 43.4729 62.5376 43.2247 62.6295 42.9546C62.7214 42.6845 62.7541 42.3984 62.7256 42.1149L62.0773 34.7264ZM13.593 46.4087H7.31942V44.3592H13.593V46.4087ZM55.4169 46.4087H49.1433V44.3592H55.4169V46.4087Z" fill="white"/>
<path d="M33.8531 17.9532C33.8826 18.0864 33.9389 18.2125 34.0188 18.3241C34.0987 18.4358 34.2004 18.5307 34.3182 18.6033C34.4359 18.6759 34.5673 18.7246 34.7045 18.7469C34.8418 18.7691 34.9822 18.7642 35.1175 18.7326C35.2528 18.701 35.3803 18.6431 35.4926 18.5626C35.6048 18.4821 35.6996 18.3804 35.7712 18.2635C35.8428 18.1467 35.8899 18.0169 35.9098 17.882C35.9297 17.7471 35.9218 17.6096 35.8868 17.4776C35.2856 14.9924 35.489 12.3854 36.4686 10.0186C37.4482 7.65185 39.1554 5.64277 41.3532 4.2703C43.551 2.89784 46.1303 2.23012 48.733 2.35987C51.3356 2.48962 53.8325 3.41039 55.8768 4.99434C57.9212 6.57829 59.4116 8.74681 60.1411 11.1988C60.8706 13.6508 60.803 16.2645 59.9477 18.6771C59.0924 21.0898 57.4917 23.1815 55.3681 24.6619C53.2445 26.1423 50.7033 26.9379 48.0972 26.9382C47.82 26.9382 47.554 27.0462 47.3579 27.2384C47.1618 27.4305 47.0517 27.6912 47.0517 27.9629C47.0517 28.2348 47.1618 28.4954 47.3579 28.6876C47.554 28.8798 47.82 28.9877 48.0972 28.9877C51.136 28.9864 54.099 28.058 56.5749 26.3312C59.0507 24.6043 60.9166 22.1649 61.9135 19.3515C62.9103 16.538 62.9886 13.4902 62.1376 10.6312C61.2866 7.77216 59.5484 5.24369 57.1645 3.39687C54.7805 1.55006 51.869 0.476512 48.8341 0.325271C45.7992 0.174031 42.7916 0.952604 40.2288 2.5529C37.6659 4.15319 35.6751 6.49582 34.5326 9.2555C33.3901 12.0153 33.1526 15.0551 33.8531 17.9532Z" fill="white"/>
<path d="M43.9155 20.7896H13.5931V16.6906C13.5931 16.4188 13.483 16.1582 13.2869 15.966C13.0908 15.7739 12.8248 15.6658 12.5475 15.6658C12.2702 15.6658 12.0042 15.7739 11.8082 15.966C11.6121 16.1582 11.502 16.4188 11.502 16.6906V22.8392C11.502 23.9263 11.9425 24.9689 12.7269 25.7377C13.5112 26.5064 14.5751 26.9382 15.6843 26.9382H18.8211C21.6651 26.9382 25.0947 29.2235 25.0947 32.062V36.1611C25.0947 36.4329 25.2048 36.6935 25.4009 36.8857C25.597 37.0779 25.863 37.1858 26.1402 37.1858H30.3227C30.6 37.1858 30.866 37.0779 31.062 36.8857C31.2581 36.6935 31.3682 36.4329 31.3682 36.1611V32.062C31.3682 29.2235 34.7978 26.9382 37.6419 26.9382H40.7786C41.8878 26.9382 42.9517 26.5064 43.736 25.7377C44.5204 24.9689 44.961 23.9263 44.961 22.8392V21.8144C44.961 21.5427 44.8509 21.282 44.6548 21.0898C44.4587 20.8976 44.1927 20.7896 43.9155 20.7896ZM40.7786 24.8887H37.6419C33.6895 24.8887 29.2771 27.9528 29.2771 32.062V35.1363H27.1859V32.062C27.1859 27.9528 22.7734 24.8887 18.8211 24.8887H15.6843C15.1302 24.8871 14.5993 24.6706 14.2074 24.2866C13.8156 23.9026 13.5948 23.3823 13.5931 22.8392H42.8698C42.8682 23.3823 42.6474 23.9026 42.2555 24.2866C41.8637 24.6706 41.3327 24.8871 40.7786 24.8887Z" fill="white"/>
<path d="M31.3681 12.5915C31.3681 12.3198 31.258 12.0591 31.0619 11.8669C30.8658 11.6748 30.5998 11.5668 30.3226 11.5668H5.22821C4.95091 11.5668 4.68495 11.6748 4.48886 11.8669C4.29278 12.0591 4.18262 12.3198 4.18262 12.5915C4.18262 12.8634 4.29278 13.124 4.48886 13.3161C4.68495 13.5084 4.95091 13.6163 5.22821 13.6163H30.3226C30.5998 13.6163 30.8658 13.5084 31.0619 13.3161C31.258 13.124 31.3681 12.8634 31.3681 12.5915Z" fill="white"/>
<path d="M16.7292 15.6658C16.4519 15.6658 16.186 15.7739 15.9898 15.966C15.7937 16.1582 15.6836 16.4188 15.6836 16.6906C15.6836 16.9624 15.7937 17.2231 15.9898 17.4152C16.186 17.6074 16.4519 17.7154 16.7292 17.7154H28.2307C28.5081 17.7154 28.774 17.6074 28.9701 17.4152C29.1662 17.2231 29.2764 16.9624 29.2764 16.6906C29.2764 16.4188 29.1662 16.1582 28.9701 15.966C28.774 15.7739 28.5081 15.6658 28.2307 15.6658H16.7292Z" fill="white"/>
<path d="M58.5535 14.6411C58.5535 14.3693 58.4434 14.1087 58.2472 13.9165C58.0511 13.7243 57.7852 13.6163 57.5079 13.6163H38.6871C38.4099 13.6163 38.1439 13.7243 37.9478 13.9165C37.7517 14.1087 37.6416 14.3693 37.6416 14.6411C37.6416 14.9129 37.7517 15.1736 37.9478 15.3657C38.1439 15.5579 38.4099 15.6658 38.6871 15.6658H57.5079C57.7852 15.6658 58.0511 15.5579 58.2472 15.3657C58.4434 15.1736 58.5535 14.9129 58.5535 14.6411Z" fill="white"/>
<path d="M39.7324 10.5421C39.7324 10.8139 39.8426 11.0746 40.0386 11.2667C40.2347 11.4589 40.5007 11.5669 40.778 11.5669H55.4163C55.6937 11.5669 55.9596 11.4589 56.1557 11.2667C56.3517 11.0746 56.4619 10.8139 56.4619 10.5421C56.4619 10.2703 56.3517 10.0097 56.1557 9.81752C55.9596 9.62528 55.6937 9.51733 55.4163 9.51733H40.778C40.5007 9.51733 40.2347 9.62528 40.0386 9.81752C39.8426 10.0097 39.7324 10.2703 39.7324 10.5421Z" fill="white"/>
<path d="M52.2795 7.46779C52.5568 7.46779 52.8228 7.35983 53.0188 7.16765C53.2149 6.97547 53.325 6.71481 53.325 6.44304C53.325 6.17125 53.2149 5.9106 53.0188 5.71842C52.8228 5.52624 52.5568 5.41827 52.2795 5.41827H43.9147C43.6374 5.41827 43.3714 5.52624 43.1753 5.71842C42.9793 5.9106 42.8691 6.17125 42.8691 6.44304C42.8691 6.71481 42.9793 6.97547 43.1753 7.16765C43.3714 7.35983 43.6374 7.46779 43.9147 7.46779H52.2795Z" fill="white"/>
<path d="M47.0515 19.7649H55.4162C55.6936 19.7649 55.9595 19.6569 56.1556 19.4648C56.3516 19.2726 56.4618 19.0119 56.4618 18.7402C56.4618 18.4683 56.3516 18.2077 56.1556 18.0156C55.9595 17.8233 55.6936 17.7154 55.4162 17.7154H47.0515C46.7741 17.7154 46.5082 17.8233 46.3121 18.0156C46.1161 18.2077 46.0059 18.4683 46.0059 18.7402C46.0059 19.0119 46.1161 19.2726 46.3121 19.4648C46.5082 19.6569 46.7741 19.7649 47.0515 19.7649Z" fill="white"/>
<path d="M31.3681 9.51729C31.6453 9.51729 31.9114 9.40934 32.1074 9.21711C32.3035 9.02496 32.4136 8.76435 32.4136 8.49251C32.4136 8.22075 32.3035 7.96007 32.1074 7.76792C31.9114 7.57576 31.6453 7.46777 31.3681 7.46777H21.9577C21.6804 7.46777 21.4145 7.57576 21.2183 7.76792C21.0222 7.96007 20.9121 8.22075 20.9121 8.49251C20.9121 8.76435 21.0222 9.02496 21.2183 9.21711C21.4145 9.40934 21.6804 9.51729 21.9577 9.51729H31.3681Z" fill="white"/>
<path d="M56.4624 40.2601C56.7397 40.2601 57.0056 40.1521 57.2017 39.9599C57.3978 39.7678 57.508 39.5071 57.508 39.2354C57.508 38.9635 57.3978 38.7029 57.2017 38.5108C57.0056 38.3185 56.7397 38.2106 56.4624 38.2106H52.28C52.0027 38.2106 51.7367 38.3185 51.5407 38.5108C51.3445 38.7029 51.2344 38.9635 51.2344 39.2354C51.2344 39.5071 51.3445 39.7678 51.5407 39.9599C51.7367 40.1521 52.0027 40.2601 52.28 40.2601H56.4624Z" fill="white"/>
<path d="M5.22821 15.6658C4.95091 15.6658 4.68495 15.7739 4.48886 15.966C4.29278 16.1582 4.18262 16.4188 4.18262 16.6906C4.18262 16.9624 4.29278 17.2231 4.48886 17.4152C4.68495 17.6074 4.95091 17.7154 5.22821 17.7154H8.36504C8.64229 17.7154 8.90829 17.6074 9.10437 17.4152C9.30044 17.2231 9.41057 16.9624 9.41057 16.6906C9.41057 16.4188 9.30044 16.1582 9.10437 15.966C8.90829 15.7739 8.64229 15.6658 8.36504 15.6658H5.22821Z" fill="white"/>
<path d="M35.5503 2.41571C35.5735 2.68605 35.4864 2.95438 35.3081 3.16184C35.1297 3.36931 34.8746 3.49898 34.5989 3.52245L8.76223 5.77693C6.9371 5.92601 5.23652 6.74422 3.99995 8.06824C2.76338 9.39222 2.08181 11.1246 2.09129 12.9195V20.7896H8.36484C8.64216 20.7896 8.90817 20.8976 9.10425 21.0898C9.30032 21.282 9.41045 21.5426 9.41045 21.8144C9.41045 22.0862 9.30032 22.3468 9.10425 22.539C8.90817 22.7312 8.64216 22.8392 8.36484 22.8392H1.0457C0.768388 22.8392 0.502436 22.7312 0.306349 22.539C0.110261 22.3468 0.000100581 22.0862 0.000100581 21.8144V12.9195C-0.0108057 10.6128 0.865595 8.38667 2.45462 6.68499C4.04365 4.98329 6.2286 3.93093 8.57401 3.73765L34.4107 1.48318C34.6877 1.45981 34.963 1.54471 35.1765 1.71939C35.39 1.89406 35.5244 2.14435 35.5503 2.41571Z" fill="white"/>
</g>
<defs>
<clipPath id="clip0">
<rect width="63.1512" height="49" fill="white"/>
</clipPath>
</defs>
</svg>
