<svg width="50" height="50" viewBox="0 0 50 50" fill="none" xmlns="http://www.w3.org/2000/svg">
<path d="M48.4863 44.4736H48.3823V41.1946C48.3823 40.3752 47.7033 39.7086 46.8686 39.7086H46.7645V30.8431C46.7645 29.6007 45.735 28.59 44.4696 28.59H44.3698C45.4986 24.8871 45.3923 20.8874 44.0491 17.218C42.5709 13.1803 39.6696 9.77343 35.8793 7.62495C32.2238 5.55303 27.9185 4.76434 23.7565 5.40508C23.3568 5.46664 23.0837 5.83452 23.1463 6.22675C23.209 6.61908 23.5833 6.88734 23.9833 6.82579C27.8156 6.23615 31.7802 6.96203 35.1469 8.87034C42.173 12.8531 45.3515 21.0808 42.8352 28.59H41.123C41.0675 28.59 41.0126 28.5926 40.9581 28.5964C42.0593 25.6973 42.219 22.5418 41.3867 19.4928C40.3295 15.619 37.799 12.3812 34.2613 10.376C30.7238 8.37082 26.6025 7.83814 22.6568 8.87602C18.9478 9.85176 15.8116 12.1057 13.7521 15.2575L12.2169 14.3873C14.3207 11.1388 17.495 8.70049 21.2275 7.48266C21.6114 7.35734 21.8191 6.95033 21.6915 6.57353C21.564 6.19674 21.1494 5.99243 20.7655 6.11793C20.0141 6.36309 19.284 6.65484 18.5777 6.9883L14.321 4.57546C13.585 4.15802 12.6404 4.40682 12.2156 5.12935L12.1771 5.19483L3.35684 0.202427C2.6208 -0.214733 1.67627 0.0336839 1.25137 0.756209L0.442481 2.13185C0.236621 2.4818 0.181934 2.88966 0.288477 3.28017C0.395019 3.67068 0.650098 3.99704 1.00703 4.19924L9.82679 9.19145L9.78874 9.2561C9.36385 9.97876 9.61703 10.9061 10.353 11.3233L11.9671 12.2383C11.6056 12.6968 11.2657 13.1742 10.9481 13.6682L10.8686 13.6232C10.1326 13.2059 9.18806 13.4544 8.7631 14.1771L7.95409 15.5526C7.74833 15.9026 7.69362 16.3104 7.80011 16.7009C7.90668 17.0913 8.16171 17.4178 8.5183 17.6198L11.4023 19.2545C7.68747 26.3245 10.2603 35.114 17.3505 39.1328C17.7184 39.3414 18.0933 39.5321 18.473 39.7086H9.24807C8.84356 39.7086 8.51565 40.0305 8.51565 40.4277C8.51565 40.825 8.84356 41.1468 9.24807 41.1468H46.8685C46.8953 41.1468 46.9173 41.1684 46.9173 41.1948V44.4738H3.08272V41.1948C3.08272 41.1684 3.10459 41.1468 3.13154 41.1468H6.31846C6.72295 41.1468 7.05089 40.825 7.05089 40.4277C7.05089 40.0305 6.72295 39.7086 6.31846 39.7086H3.13154C2.29688 39.7086 1.61787 40.3753 1.61787 41.1948V44.4738H1.51367C0.679006 44.4738 0 45.1404 0 45.9598V47.6025C0 48.4219 0.679006 49.0885 1.51367 49.0885H48.4863C49.321 49.0885 50 48.4219 50 47.6025V45.9598C50 45.1402 49.321 44.4736 48.4863 44.4736ZM3.20684 3.78439L1.73897 2.95351C1.7208 2.94325 1.70879 2.92792 1.70342 2.90788C1.69795 2.88794 1.70049 2.86876 1.71104 2.85083L2.51992 1.47519C2.53399 1.45122 2.55967 1.4377 2.58623 1.4377C2.59932 1.4377 2.61269 1.44096 2.6249 1.44787L4.09239 2.27854L3.20684 3.78439ZM4.47588 4.5027L5.36133 2.99695L11.4445 6.44027L10.5591 7.94592L4.47588 4.5027ZM11.0853 10.0777C11.0487 10.057 11.0362 10.011 11.0573 9.97512L13.484 5.84852C13.505 5.81257 13.5519 5.8001 13.5885 5.821L17.063 7.79052C15.5266 8.6974 14.133 9.81894 12.9247 11.1206L11.0853 10.0777ZM18.0829 37.8872C11.6924 34.2649 9.36013 26.3563 12.6721 19.9741L19.8354 24.0346C19.3652 25.1448 19.2791 26.3687 19.6013 27.5494C19.9875 28.9644 20.9117 30.147 22.2039 30.8794C23.0647 31.3673 24.0198 31.6165 24.9878 31.6165C25.473 31.6165 25.9615 31.554 26.4426 31.4273C27.6451 31.1109 28.6818 30.4257 29.4259 29.4709L33.782 31.94C32.3765 33.9941 30.2923 35.4764 27.8429 36.147C27.4532 36.2538 27.2255 36.6502 27.3341 37.0329C27.4244 37.3507 27.7186 37.5589 28.0393 37.5589C28.1044 37.5589 28.1706 37.5503 28.2364 37.5324C31.0575 36.7599 33.4527 35.0415 35.053 32.6604L36.5894 33.5313C32.6158 39.5382 24.4735 41.5095 18.0829 37.8872ZM21.1188 24.762L28.1429 28.7435C27.6049 29.3704 26.887 29.8216 26.0637 30.0381C25.0005 30.318 23.8899 30.1743 22.9365 29.6339C21.9832 29.0936 21.3013 28.2211 21.0164 27.1772C20.7957 26.3687 20.8348 25.5327 21.1188 24.762ZM38.8282 39.7085H31.5308C34.1137 38.5171 36.297 36.643 37.8599 34.2513L38.8282 34.8002V39.7085ZM38.8282 33.1396L9.25071 16.3741C9.21417 16.3535 9.20165 16.3074 9.22275 16.2715L10.0316 14.896C10.0527 14.8602 10.0995 14.8477 10.1361 14.8685L38.8282 31.132V33.1396ZM15.022 15.9774C16.8846 13.158 19.705 11.1415 23.0359 10.2653C26.6038 9.32665 30.3303 9.80821 33.5289 11.6216C36.7278 13.4347 39.0159 16.3623 39.9719 19.8651C40.8644 23.1352 40.4958 26.5414 38.9402 29.5349L15.022 15.9774ZM45.2996 39.7085H40.293V37.9698H45.2996L45.2996 39.7085ZM45.2996 36.5318H40.293V30.8431C40.293 30.3939 40.6653 30.0282 41.123 30.0282H44.4696C44.9273 30.0282 45.2996 30.3939 45.2996 30.8431L45.2996 36.5318ZM4.85352 47.6502H1.51367C1.48672 47.6502 1.46485 47.6286 1.46485 47.6023V45.9596C1.46485 45.9332 1.48672 45.9117 1.51367 45.9117H2.35029H4.85352V47.6502ZM43.6817 47.6502H6.31836V45.9117H43.6817V47.6502ZM48.5352 47.6023C48.5352 47.6286 48.5132 47.6502 48.4863 47.6502H45.1465V45.9117H47.6499H48.4863C48.5132 45.9117 48.5352 45.9332 48.5352 45.9596V47.6023Z" fill="white"/>
</svg>
