<svg width="50" height="65" viewBox="0 0 50 65" fill="none" xmlns="http://www.w3.org/2000/svg">
<path d="M47.2557 15.1675C46.2371 14.7809 45.1055 14.7745 44.0822 15.1497C43.0589 15.5247 42.2177 16.2544 41.7228 17.1958L40.2728 19.9903L41.5197 9.17043C41.636 8.1605 41.34 7.14658 40.6944 6.34329C40.0489 5.54004 39.1044 5.01054 38.061 4.86689C37.0178 4.72325 35.9573 4.97672 35.1044 5.57367C34.2515 6.17061 33.673 7.06412 33.4914 8.06511C32.6592 12.6567 31.1986 20.7899 30.7706 23.669C30.7682 23.6848 30.7597 23.6992 30.7469 23.7092C30.734 23.7193 30.7177 23.7243 30.7011 23.7232C30.6846 23.7221 30.6691 23.7151 30.6577 23.7036C30.6463 23.692 30.6398 23.6767 30.6396 23.6606V4.31349C30.6396 3.16948 30.1683 2.07232 29.3293 1.26339C28.4902 0.454451 27.3524 0 26.1658 0C24.9793 0 23.8414 0.454451 23.0023 1.26339C22.1633 2.07232 21.692 3.16948 21.692 4.31349V23.6606C21.692 23.669 21.6903 23.6773 21.687 23.685C21.6837 23.6927 21.6788 23.6997 21.6727 23.7056C21.6666 23.7114 21.6594 23.7161 21.6514 23.7193C21.6434 23.7225 21.6348 23.7242 21.6262 23.7242H21.5855C21.5697 23.7242 21.5545 23.7188 21.5426 23.7089C21.5306 23.699 21.5228 23.6852 21.5205 23.6703L18.8631 7.43902C18.6772 6.29547 18.0297 5.2692 17.0622 4.58406C16.0946 3.89891 14.8852 3.61048 13.6979 3.78167C12.5106 3.95286 11.4417 4.56978 10.7242 5.49788C10.0068 6.42598 9.69918 7.58997 9.86836 8.73589L12.745 28.3775V29.2768L8.23693 23.8439C7.53465 22.9976 6.53667 22.4269 5.42967 22.2384C4.32268 22.0498 3.18232 22.2565 2.22186 22.8198C1.26139 23.383 0.546542 24.2642 0.21093 25.2986C-0.124681 26.3331 -0.0580546 27.4499 0.398334 28.4404L6.53118 41.7448C7.79886 44.5003 9.5838 47.0062 11.7961 49.1362L12.745 50.0517V58.4175C11.9991 58.6722 11.3705 59.1727 10.9703 59.8308C10.5701 60.4891 10.4239 61.2624 10.5578 62.0143C10.6916 62.7662 11.0968 63.4483 11.7016 63.9402C12.3065 64.4321 13.0722 64.702 13.8635 64.7023H36.2324C36.9118 64.7027 37.5754 64.5041 38.1351 64.1328C38.6948 63.7616 39.1244 63.2352 39.3669 62.6232C39.6095 62.0113 39.6535 61.3428 39.4932 60.7063C39.3329 60.0697 38.9759 59.495 38.4693 59.0585V47.8877C40.6347 45.6983 42.2581 43.0648 43.2177 40.1844L49.7956 20.3651C50.1289 19.3496 50.0525 18.2502 49.5816 17.2867C49.1108 16.323 48.2802 15.5662 47.2557 15.1675ZM36.2324 62.5455H13.8635C13.5668 62.5455 13.2823 62.4319 13.0726 62.2297C12.8629 62.0275 12.745 61.7532 12.745 61.4671C12.745 61.1812 12.8629 60.9069 13.0726 60.7047C13.2823 60.5024 13.5668 60.3888 13.8635 60.3888H36.2324C36.5291 60.3888 36.8135 60.5024 37.0232 60.7047C37.233 60.9069 37.3509 61.1812 37.3509 61.4671C37.3509 61.7532 37.233 62.0275 37.0232 62.2297C36.8135 62.4319 36.5291 62.5455 36.2324 62.5455ZM47.665 19.7073L41.0873 39.527C40.1883 42.2257 38.6365 44.6795 36.56 46.6858C36.4562 46.786 36.3737 46.9048 36.3175 47.0357C36.2613 47.1665 36.2324 47.3068 36.2324 47.4483V58.2321H14.9819V49.6051C14.9819 49.4635 14.953 49.3233 14.8968 49.1924C14.8406 49.0615 14.7582 48.9427 14.6543 48.8426L13.3779 47.6119C11.36 45.6691 9.73175 43.3835 8.57529 40.8703L2.44244 27.5659C2.24822 27.1401 2.19151 26.6679 2.27963 26.2107C2.36767 25.7534 2.59649 25.3323 2.93617 25.0022C3.17374 24.7731 3.45865 24.5949 3.77241 24.4793C4.08626 24.3636 4.42178 24.3131 4.75721 24.3311C5.09265 24.3489 5.42038 24.4349 5.71901 24.5832C6.01763 24.7316 6.28043 24.939 6.49022 25.192L12.9901 33.0251C13.1348 33.1997 13.3323 33.3265 13.5551 33.3881C13.7779 33.4496 14.0151 33.443 14.2338 33.369C14.4525 33.295 14.642 33.1573 14.776 32.9749C14.9101 32.7926 14.982 32.5747 14.9819 32.3511V28.3016C14.9819 28.2512 14.9783 28.2008 14.971 28.1509L12.0833 8.43417C11.9994 7.85293 12.1569 7.26311 12.5214 6.7931C12.8859 6.32311 13.4282 6.01077 14.0302 5.924C14.6322 5.83721 15.2455 5.983 15.7367 6.32968C16.2278 6.67636 16.5573 7.19596 16.6534 7.77542L19.3116 24.0072C19.3952 24.5303 19.6708 25.0072 20.0882 25.351C20.5056 25.6948 21.0371 25.8829 21.5861 25.8809H21.6267C22.2372 25.8802 22.8225 25.6461 23.2542 25.2299C23.6859 24.8136 23.9288 24.2493 23.9294 23.6606V4.31349C23.9294 3.74148 24.1652 3.19291 24.5846 2.78844C25.0041 2.38397 25.5731 2.15674 26.1663 2.15674C26.7596 2.15674 27.3286 2.38397 27.7481 2.78844C28.1676 3.19291 28.4033 3.74148 28.4033 4.31349V23.6606C28.4033 24.2222 28.6239 24.7629 29.0209 25.1739C29.4178 25.5848 29.9614 25.8353 30.5424 25.8753C31.1233 25.9152 31.6983 25.7413 32.1516 25.3887C32.6049 25.0361 32.9028 24.531 32.9853 23.9752C33.4097 21.124 34.8655 13.0162 35.6956 8.43638C35.7773 7.98751 36.0369 7.58696 36.4195 7.31939C36.8022 7.05182 37.2777 6.93821 37.7456 7.00271C38.2136 7.06722 38.6371 7.30461 38.9267 7.66482C39.2162 8.02503 39.3491 8.47974 39.2971 8.93268L37.3577 25.7617C37.3288 26.0134 37.3925 26.2668 37.5378 26.4776C37.6831 26.6885 37.9007 26.8433 38.1525 26.915C38.4043 26.9868 38.6742 26.9707 38.9151 26.8699C39.1558 26.769 39.3522 26.5897 39.4696 26.3632L43.7235 18.1604C43.9639 17.697 44.377 17.3381 44.8799 17.1555C45.3829 16.9727 45.9388 16.9798 46.4366 17.1752C46.9345 17.3706 47.3376 17.7398 47.5652 18.2092C47.793 18.6787 47.8286 19.2136 47.665 19.7073Z" fill="white"/>
</svg>
