<svg width="50" height="46" viewBox="0 0 50 46" fill="none" xmlns="http://www.w3.org/2000/svg">
<path d="M48.9831 0.102276C48.3678 -0.105612 47.6587 0.0092642 47.1875 0.393679L0.482595 38.4942C-0.160865 39.0191 -0.160865 39.8701 0.482595 40.395L6.72224 45.485C7.04397 45.7475 7.46562 45.8788 7.88726 45.8788C8.30881 45.8788 8.73063 45.7476 9.05219 45.485L23.2534 33.9001L27.4713 35.3731C27.6804 35.4461 27.9007 35.4816 28.1192 35.4816C28.5477 35.4816 28.9693 35.3452 29.2846 35.0878L35.3993 30.0998C40.0517 26.3044 43.6875 21.8655 46.2054 16.9066C48.7233 11.9477 50 6.71188 50 1.34441C50.0001 0.80076 49.5987 0.310254 48.9831 0.102276ZM7.88726 42.6338L3.9778 39.4446L11.6309 33.2015L15.5403 36.3906L7.88726 42.6338ZM17.8705 34.4897L13.9611 31.3005L16.6225 29.1293L20.532 32.3186L17.8705 34.4897ZM43.1611 15.8781C40.8097 20.5091 37.4143 24.6545 33.0694 28.199L27.7432 32.5439L23.7659 31.155L18.9529 27.2285L46.5208 4.73917C46.1035 8.56486 44.9785 12.2987 43.1611 15.8781Z" fill="white"/>
</svg>
